<?xml version="1.0" encoding="utf-8"?>
<!-- Generator: Adobe Illustrator 24.1.2, SVG Export Plug-In . SVG Version: 6.00 Build 0)  -->
<svg version="1.1" id="Layer_1" xmlns="http://www.w3.org/2000/svg" xmlns:xlink="http://www.w3.org/1999/xlink" x="0px" y="0px"
	 viewBox="0 0 64 64" style="enable-background:new 0 0 64 64;" xml:space="preserve">
<g>
	<path class="st0" d="M31.5,0C13.8,0.3-0.3,14.9,0,32.5S14.9,64.3,32.5,64S64.3,49.1,64,31.5C63.7,13.8,49.1-0.3,31.5,0z M47.9,20.3
		h-1.7v24.2c0,3.1-2.6,5.7-5.7,5.7H24.2c-3.1,0-5.7-2.6-5.7-5.7V20.3h-1.7c-0.6,0-1.2-0.5-1.2-1.2c0-0.6,0.5-1.2,1.2-1.2h7.6v-1.1
		c0-2.3,1.9-4.2,4.2-4.2H36c2.3,0,4.2,1.9,4.2,4.2v1.1h7.6c0.6,0,1.2,0.5,1.2,1.2C49.1,19.7,48.6,20.3,47.9,20.3z"/>
	<path class="st0" d="M37.9,16.8c0-1-0.9-1.9-1.9-1.9h-7.4c-1,0-1.9,0.9-1.9,1.9l0,1.1h11.2V16.8z"/>
	<path class="st0" d="M20.9,44.5c0,1.8,1.5,3.3,3.3,3.3h16.3c1.8,0,3.3-1.5,3.3-3.3l0-0.1V20.3h-23V44.5z M37.9,26
		c0-0.6,0.5-1.2,1.2-1.2c0,0,0,0,0,0c0.3,0,0.6,0.1,0.8,0.3s0.3,0.5,0.3,0.8v16c0,0.3-0.1,0.6-0.3,0.8c-0.2,0.2-0.5,0.3-0.8,0.3
		c0,0,0,0,0,0h0c-0.3,0-0.6-0.1-0.8-0.3c-0.2-0.2-0.3-0.5-0.3-0.8V26z M31.2,24.9c0-0.6,0.5-1.2,1.2-1.2c0.6,0,1.2,0.5,1.2,1.2v18.3
		c0,0.3-0.1,0.6-0.3,0.8c-0.2,0.2-0.5,0.3-0.8,0.3c0,0,0,0,0,0c-0.3,0-0.6-0.1-0.8-0.3c-0.2-0.2-0.3-0.5-0.3-0.8V24.9z M24.4,26
		c0-0.6,0.5-1.2,1.2-1.2c0.6,0,1.2,0.5,1.2,1.2v16c0,0.3-0.1,0.6-0.3,0.8c-0.2,0.2-0.5,0.3-0.8,0.3c0,0,0,0,0,0
		c-0.6,0-1.2-0.5-1.2-1.2V26z"/>
</g>
</svg>
