<?xml version="1.0" encoding="utf-8"?>
<!-- Generator: Adobe Illustrator 24.1.2, SVG Export Plug-In . SVG Version: 6.00 Build 0)  -->
<svg version="1.1" id="Layer_1" xmlns="http://www.w3.org/2000/svg" xmlns:xlink="http://www.w3.org/1999/xlink" x="0px" y="0px"
	 viewBox="0 0 64 64" style="enable-background:new 0 0 64 64;" xml:space="preserve">
<g>
	<path class="st0" d="M32,0C14.3,0,0,14.3,0,32s14.3,32,32,32s32-14.3,32-32S49.7,0,32,0z M32.3,23.1l3,1.4l-1.4,3l-3-1.4L32.3,23.1
		z M28.3,21.2l3,1.4l-1.4,3l-3-1.4L28.3,21.2z M17,48.2l4-16l-4-16l9.2,4.2l-1,2.1l-4.8-2.2l2.7,10.7h20.5l-7.8-3.6l1-2.1l14.9,6.9
		L17,48.2z"/>
	<polygon class="st0" points="20.4,44.1 43.6,33.4 23.1,33.4 	"/>
</g>
</svg>
