<?xml version="1.0" encoding="utf-8"?>
<!-- Generator: Adobe Illustrator 24.1.2, SVG Export Plug-In . SVG Version: 6.00 Build 0)  -->
<svg version="1.1" id="Layer_1" xmlns="http://www.w3.org/2000/svg" xmlns:xlink="http://www.w3.org/1999/xlink" x="0px" y="0px"
	 viewBox="0 0 64 64" style="enable-background:new 0 0 64 64;" xml:space="preserve">
<g>
	<path class="st0" d="M16.1,21.5C16.1,21.5,16.1,21.5,16.1,21.5L16.1,21.5c2.9,0,5.4-2,6-4.8h30.5c0.8,0,1.4-0.6,1.4-1.4
		c0-0.8-0.6-1.4-1.4-1.4H22.1c-0.3-1.4-1.1-2.6-2.3-3.5c-1.3-1-2.9-1.4-4.6-1.2c-1.6,0.2-3.1,1.1-4.1,2.4c-1,1.3-1.4,2.9-1.2,4.6
		C10.5,19.3,13.1,21.5,16.1,21.5z M12.8,15.3c0-1.8,1.5-3.3,3.3-3.3c1.8,0,3.3,1.5,3.3,3.3s-1.5,3.3-3.3,3.3
		C14.3,18.7,12.8,17.2,12.8,15.3z"/>
	<path class="st0" d="M47.9,42.5C47.9,42.5,47.9,42.5,47.9,42.5L47.9,42.5c-2.9,0-5.4,2-6,4.8H11.4c-0.8,0-1.4,0.6-1.4,1.4
		s0.6,1.4,1.4,1.4h30.5c0.3,1.4,1.1,2.6,2.3,3.5c1.1,0.8,2.4,1.2,3.7,1.2c0.3,0,0.6,0,0.9-0.1c1.6-0.2,3.1-1.1,4.1-2.4
		c1-1.3,1.4-2.9,1.2-4.6C53.5,44.7,50.9,42.5,47.9,42.5z M51.2,48.7c0,1.8-1.5,3.3-3.3,3.3c-1.8,0-3.3-1.5-3.3-3.3s1.5-3.3,3.3-3.3
		C49.7,45.3,51.2,46.8,51.2,48.7z"/>
	<path class="st0" d="M52.6,30.6H38.4c-0.6-3.2-3.6-5.4-6.9-5c-2.8,0.3-5,2.3-5.5,5H11.4c-0.8,0-1.4,0.6-1.4,1.4
		c0,0.8,0.6,1.4,1.4,1.4H26c0.7,2.8,3.3,4.8,6.1,4.8c0.3,0,0.7,0,1.1-0.1c2.5-0.4,4.5-2.3,5.1-4.7h14.3c0.8,0,1.4-0.6,1.4-1.4
		C54,31.2,53.4,30.6,52.6,30.6z M35.7,31.8c0,1.9-1.6,3.5-3.5,3.5c-1.9,0-3.5-1.6-3.5-3.5s1.6-3.5,3.5-3.5
		C34.1,28.3,35.7,29.9,35.7,31.8z"/>
</g>
</svg>
