<?xml version="1.0" encoding="utf-8"?>
<!-- Generator: Adobe Illustrator 24.1.2, SVG Export Plug-In . SVG Version: 6.00 Build 0)  -->
<svg version="1.1" id="Layer_1" xmlns="http://www.w3.org/2000/svg" xmlns:xlink="http://www.w3.org/1999/xlink" x="0px" y="0px"
	 viewBox="0 0 64 64" style="enable-background:new 0 0 64 64;" xml:space="preserve">
<path class="st0" d="M31.5,0C13.8,0.3-0.3,14.9,0,32.5C0.3,50.2,14.9,64.3,32.5,64S64.3,49.1,64,31.5C63.7,13.8,49.1-0.3,31.5,0z
	 M31.9,51.7c-0.1,0-0.1,0-0.2,0c-10.7,0-19.3-8.3-19.7-19c0-0.7,0.5-1.4,1.3-1.4c0.7,0,1.4,0.5,1.4,1.3C15,41.9,22.5,49,31.7,49
	c0,0,0.1,0,0.1,0c9.4-0.1,17-7.8,16.9-17.2c0-4.6-1.8-8.8-5.1-12c-3.2-3.2-7.5-4.9-12.1-4.9c-7,0.2-13.3,4.7-15.8,11.2l6.3-0.1
	c0.7,0,1.3,0.6,1.4,1.3c0,0.7-0.6,1.3-1.3,1.4l-8.8,0.1c0,0,0,0,0,0c-0.7,0-1.3-0.6-1.3-1.3l-0.2-10.2c0-0.7,0.6-1.3,1.3-1.4
	c0.7,0,1.3,0.6,1.4,1.3l0.1,5.2c3.5-6.1,9.9-10.1,17-10.3c0.1,0,0.1,0,0.2,0c10.8,0,19.7,8.7,19.7,19.6
	C51.5,42.7,42.7,51.6,31.9,51.7z M27.2,24.7l13.1,7.5L27.5,40L27.2,24.7z"/>
</svg>
