<?xml version="1.0" encoding="utf-8"?>
<!-- Generator: Adobe Illustrator 24.1.2, SVG Export Plug-In . SVG Version: 6.00 Build 0)  -->
<svg version="1.1" id="Layer_1" xmlns="http://www.w3.org/2000/svg" xmlns:xlink="http://www.w3.org/1999/xlink" x="0px" y="0px"
	 viewBox="0 0 64 64" style="enable-background:new 0 0 64 64;" xml:space="preserve">
<g id="magnifying-glass_1_" transform="translate(1100.458 176.458)">
	<path id="Trazado_7_1_" class="st0" d="M-1046.2-124.9l-11-11c6.7-8.2,5.5-20.3-2.7-27c-8.2-6.7-20.3-5.5-27,2.7s-5.5,20.3,2.7,27
		c7.1,5.8,17.3,5.8,24.3,0l11,11c0.7,0.8,1.9,0.8,2.7,0.1s0.8-1.9,0.1-2.7C-1046.2-124.9-1046.2-124.9-1046.2-124.9L-1046.2-124.9z
		 M-1072.1-132.7c-8.5,0-15.4-6.9-15.4-15.4s6.9-15.4,15.4-15.4s15.4,6.9,15.4,15.4c0,0,0,0,0,0
		C-1056.7-139.6-1063.6-132.7-1072.1-132.7L-1072.1-132.7z"/>
</g>
</svg>
