<?xml version="1.0" encoding="utf-8"?>
<!-- Generator: Adobe Illustrator 24.1.2, SVG Export Plug-In . SVG Version: 6.00 Build 0)  -->
<svg version="1.1" id="Layer_1" xmlns="http://www.w3.org/2000/svg" xmlns:xlink="http://www.w3.org/1999/xlink" x="0px" y="0px"
	 viewBox="0 0 64 64" style="enable-background:new 0 0 64 64;" xml:space="preserve">
<path class="st0" d="M36.7,55c-0.3,0-0.6-0.1-0.9-0.2l-9.3-4.7c-0.7-0.3-1.1-1-1.1-1.8V33.8L7.1,12.3c-0.5-0.6-0.6-1.4-0.3-2.2
	C7.2,9.4,7.9,9,8.7,9h46.7c0.8,0,1.5,0.5,1.8,1.2c0.3,0.7,0.2,1.6-0.3,2.2L38.7,33.8V53c0,0.7-0.4,1.4-1,1.7
	C37.4,54.9,37,55,36.7,55z M29.4,47.1l5.3,2.6V33.1c0-0.5,0.2-0.9,0.5-1.3L51,13H13l15.9,18.8c0.3,0.4,0.5,0.8,0.5,1.3V47.1z"/>
</svg>
