<?xml version="1.0" encoding="utf-8"?>
<!-- Generator: Adobe Illustrator 24.1.2, SVG Export Plug-In . SVG Version: 6.00 Build 0)  -->
<svg version="1.1" id="Layer_1" xmlns="http://www.w3.org/2000/svg" xmlns:xlink="http://www.w3.org/1999/xlink" x="0px" y="0px"
	 viewBox="0 0 64 64" style="enable-background:new 0 0 64 64;" xml:space="preserve">
<g>
	<polygon class="st0" points="30.9,34.9 30.9,34.9 30.9,34.9 	"/>
	<path class="st0" d="M26.5,30c-0.1-0.1-0.2-0.2-0.3-0.3c0,0-0.1-0.1-0.1-0.1c-0.1-0.1-0.2-0.2-0.3-0.2l-0.1-0.1
		c-0.1,0-0.1-0.1-0.2-0.1c-0.7,1.6-0.7,3.4,0,5.1c0.1,0,0.1-0.1,0.2-0.1l0.1-0.1c0.1-0.1,0.2-0.2,0.3-0.3c0.1,0,0.1-0.1,0.1-0.1
		c0.1-0.1,0.2-0.2,0.3-0.3l0-0.1c0.1-0.1,0.2-0.3,0.2-0.4l0-0.1c0.1-0.2,0.1-0.3,0.1-0.4c0-0.1,0-0.1,0-0.2c0-0.2,0.1-0.3,0.1-0.5
		c0-0.2,0-0.3-0.1-0.5c0,0,0-0.1,0-0.1c0-0.1-0.1-0.2-0.1-0.4l-0.1-0.1C26.7,30.4,26.6,30.2,26.5,30"/>
	<path class="st0" d="M23.7,28.8c-1.4,0.2-2.5,1.4-2.5,2.9l0,0.1c0.1,1.4,1.1,2.6,2.5,2.8C23,32.7,23,30.7,23.7,28.8z"/>
	<path class="st0" d="M34.2,37.9c0-0.1-0.1-0.1-0.1-0.2c0,0,0-0.1-0.1-0.1l0-0.1c-0.1-0.1-0.1-0.2-0.2-0.3c0,0-0.1-0.1-0.1-0.1
		c-0.1-0.1-0.2-0.2-0.3-0.3l-0.1,0c-0.1-0.1-0.3-0.2-0.4-0.2l-0.1,0c-0.2-0.1-0.3-0.1-0.4-0.1c-0.1,0-0.1,0-0.2,0
		c-0.3-0.1-0.7-0.1-1,0c-0.1,0-0.1,0-0.2,0c-0.1,0-0.2,0.1-0.4,0.1l-0.1,0.1c-0.2,0.1-0.3,0.1-0.4,0.2l-0.1,0
		c-0.1,0.1-0.2,0.2-0.3,0.3c0,0-0.1,0.1-0.1,0.1c-0.1,0.1-0.2,0.2-0.2,0.3c-0.1,0.1-0.1,0.1-0.1,0.1c0,0.1-0.1,0.1-0.1,0.2
		C30.8,38.5,32.6,38.5,34.2,37.9z"/>
	<path class="st0" d="M34.6,23.7c-0.2-1.4-1.4-2.5-2.9-2.5l-0.2,0c-1.4,0.1-2.5,1.2-2.7,2.5C30.7,23.1,32.7,23.1,34.6,23.7z"/>
	<path class="st0" d="M28.8,39.7c0.2,1.4,1.4,2.5,2.9,2.5c1.5,0,2.7-1.1,2.9-2.5C32.7,40.3,30.7,40.3,28.8,39.7z"/>
	<path class="st0" d="M33.3,26.5c0.1-0.1,0.2-0.2,0.3-0.3c0,0,0.1-0.1,0.1-0.1c0.1-0.1,0.2-0.2,0.2-0.3l0.1-0.1
		c0-0.1,0.1-0.1,0.1-0.2c-1.6-0.7-3.4-0.7-5.1,0c0,0.1,0.1,0.1,0.1,0.2l0.1,0.1c0.1,0.1,0.2,0.2,0.3,0.3c0,0,0.1,0.1,0.1,0.1
		c0.1,0.1,0.2,0.2,0.3,0.3l0.1,0c0.1,0.1,0.3,0.2,0.4,0.2l0.1,0c0.2,0.1,0.3,0.1,0.4,0.1c0.1,0,0.1,0,0.2,0c0.3,0.1,0.7,0.1,1,0
		c0.1,0,0.1,0,0.2,0c0.1,0,0.3-0.1,0.4-0.1l0.1-0.1C33,26.7,33.2,26.6,33.3,26.5"/>
	<polygon class="st0" points="28.5,30.9 28.5,30.9 28.5,30.9 	"/>
	<polygon class="st0" points="28.3,30.2 28.3,30.2 28.3,30.2 	"/>
	<path class="st0" d="M32,0C14.3,0,0,14.3,0,32s14.3,32,32,32s32-14.3,32-32S49.7,0,32,0z M51.7,52.7c-3.3,0-6.2-2.2-7.1-5.4
		c-8,6.6-19.6,6.3-27.2-0.9c-4-3.8-6.2-8.9-6.4-14.4c-0.1-5.5,1.9-10.7,5.6-14.7c3.8-4,8.9-6.2,14.4-6.4c5.5-0.1,10.7,1.9,14.7,5.6
		c8.2,7.8,8.5,20.7,0.9,28.9c0.1,2.8,2.4,5,5.1,5l0.2,0c0.5,0.1,0.9,0.5,0.9,1.1C52.8,52.2,52.3,52.7,51.7,52.7z"/>
	<path class="st0" d="M31.7,18.1c-7.5,0-13.5,6.1-13.5,13.5c0,7.5,6.1,13.5,13.5,13.5c7.4,0,13.5-6.1,13.5-13.5
		C45.3,24.2,39.2,18.1,31.7,18.1z M27,24.6c0-0.2,0-0.4,0-0.6c0-1.3,0.5-2.4,1.4-3.3c0.9-0.9,2.1-1.4,3.3-1.4c0,0,0,0,0,0
		c1.3,0,2.4,0.5,3.3,1.4c0.9,0.9,1.4,2.1,1.4,3.3c0,0.2,0,0.3,0,0.5l0,0l0,0.2l-0.1,0.5c-0.1,0.3-0.1,0.5-0.2,0.7l0,0l0,0
		c-0.1,0.2-0.2,0.4-0.4,0.6c-0.1,0.2-0.3,0.4-0.4,0.6l-0.1,0.1c-0.2,0.2-0.3,0.3-0.5,0.4c0,0-0.1,0-0.1,0.1
		c-0.2,0.1-0.4,0.3-0.6,0.4l-0.1,0c-0.2,0.1-0.4,0.2-0.6,0.2l-0.1,0c-0.2,0.1-0.4,0.1-0.7,0.2c-0.1,0-0.1,0-0.2,0
		c-0.2,0-0.4,0.1-0.7,0.1c-0.2,0-0.5,0-0.7-0.1l-0.1,0c-0.2,0-0.4-0.1-0.7-0.2l-0.1,0c-0.2-0.1-0.4-0.2-0.6-0.2l-0.1,0
		c-0.2-0.1-0.4-0.2-0.6-0.4l-0.1-0.1c-0.2-0.1-0.3-0.3-0.5-0.4l-0.1-0.1c-0.2-0.2-0.3-0.3-0.4-0.5c-0.1-0.2-0.3-0.4-0.4-0.7l0-0.1
		l0,0c-0.1-0.2-0.2-0.4-0.2-0.7 M24.6,36.4c-0.2,0-0.4,0-0.5,0c-2.6,0-4.7-2.1-4.7-4.7c0-2.6,2.1-4.7,4.7-4.7c0,0,0,0,0,0
		c0.2,0,0.3,0,0.5,0l0,0l0.2,0l0.5,0.1c0.3,0.1,0.5,0.1,0.7,0.3c0.3,0.1,0.5,0.2,0.7,0.4c0.2,0.1,0.4,0.3,0.6,0.4l0.1,0.1
		c0.2,0.2,0.3,0.3,0.4,0.5c0,0,0,0.1,0.1,0.1c0.1,0.2,0.3,0.4,0.4,0.6c0.1,0.2,0.2,0.4,0.3,0.6l0,0.1c0.1,0.2,0.1,0.4,0.2,0.6
		c0,0.1,0,0.1,0,0.2c0,0.2,0.1,0.4,0.1,0.7c0,0.2,0,0.5-0.1,0.7l0,0l0,0.1c0,0.2-0.1,0.4-0.2,0.7v0l0,0.1c-0.1,0.2-0.2,0.4-0.3,0.6
		c-0.1,0.2-0.2,0.4-0.4,0.6l-0.1,0.1c-0.1,0.2-0.3,0.3-0.4,0.5l-0.1,0.1c-0.2,0.1-0.3,0.3-0.5,0.4c-0.2,0.1-0.4,0.3-0.7,0.4
		c-0.3,0.1-0.5,0.2-0.7,0.3 M27,38.8l0-0.2l0.1-0.5c0.1-0.2,0.1-0.5,0.3-0.7c0.1-0.3,0.2-0.5,0.4-0.7c0.1-0.2,0.3-0.4,0.4-0.6
		l0.1-0.1c0.2-0.2,0.3-0.3,0.5-0.4c0,0,0.1,0,0.1-0.1c0.2-0.1,0.4-0.3,0.6-0.4c0.2-0.1,0.4-0.2,0.6-0.3l0.1,0
		c0.2-0.1,0.4-0.1,0.6-0.2c0.1,0,0.1,0,0.2,0c0.2,0,0.4-0.1,0.7-0.1c0.2,0,0.5,0,0.7,0.1l0.1,0c0.2,0,0.5,0.1,0.7,0.2l0.1,0
		c0.2,0.1,0.4,0.2,0.6,0.3c0.2,0.1,0.4,0.2,0.6,0.4l0.1,0.1c0.2,0.1,0.3,0.3,0.5,0.4l0.1,0.1c0.1,0.2,0.3,0.3,0.4,0.5
		c0.1,0.2,0.3,0.4,0.4,0.7c0.1,0.3,0.2,0.5,0.3,0.7l0.1,0.6l0,0c0,0.2,0,0.4,0,0.6c0,2.6-2.1,4.7-4.7,4.7c0,0,0,0,0,0
		c-2.6,0-4.7-2.1-4.7-4.7 M38.8,27c0.2,0,0.3,0,0.5,0c0.3,0,0.5,0,0.8,0.1c1.2,0.2,2.3,0.9,3.1,1.9c0.7,1,1,2.3,0.8,3.5
		c-0.2,1.2-0.9,2.3-1.9,3.1c-0.8,0.6-1.8,0.9-2.8,0.9c-0.2,0-0.4,0-0.5,0l0,0l-0.2,0l-0.5-0.1c-0.3-0.1-0.5-0.1-0.7-0.3
		c-0.3-0.1-0.5-0.2-0.7-0.4c-0.2-0.1-0.4-0.3-0.6-0.4L36,35.1c-0.2-0.2-0.3-0.3-0.4-0.5l-0.1-0.1c-0.1-0.2-0.3-0.4-0.4-0.6l0-0.1
		c-0.1-0.2-0.2-0.4-0.3-0.6c0-0.1,0-0.1,0-0.1c-0.1-0.2-0.1-0.4-0.2-0.6c0-0.1,0-0.1,0-0.2c0-0.2-0.1-0.4-0.1-0.7
		c0-0.2,0-0.5,0.1-0.7l0-0.1c0-0.2,0.1-0.4,0.2-0.7l0-0.1c0.1-0.2,0.2-0.4,0.2-0.6l0-0.1c0.1-0.2,0.2-0.4,0.4-0.6l0.1-0.1
		c0.1-0.2,0.3-0.3,0.4-0.5l0.1-0.1c0.2-0.2,0.3-0.3,0.5-0.4c0.2-0.1,0.4-0.3,0.7-0.4c0.3-0.1,0.5-0.2,0.7-0.3"/>
	<path class="st0" d="M39.7,28.8c0.7,1.8,0.7,3.9,0,5.7c0.6-0.1,1.2-0.4,1.7-0.8c0.5-0.5,0.8-1.3,0.8-2C42.2,30.2,41.1,29,39.7,28.8
		z"/>
	<path class="st0" d="M31.6,13.1c-10.1,0-18.3,8.2-18.3,18.3c0,10.1,8.2,18.3,18.3,18.3c10.1,0,18.3-8.2,18.3-18.3
		C49.9,21.3,41.7,13.1,31.6,13.1z M31.7,46.9c-8.4,0-15.2-6.8-15.2-15.2c0-4.1,1.6-7.9,4.5-10.8s6.7-4.5,10.8-4.5
		c8.4,0,15.2,6.8,15.2,15.2C47,40.1,40.1,46.9,31.7,46.9z"/>
	<path class="st0" d="M36.9,33.3c0.1,0.1,0.2,0.2,0.3,0.3c0,0,0.1,0.1,0.1,0.1c0.1,0.1,0.2,0.2,0.3,0.2l0.1,0.1
		c0.1,0,0.1,0.1,0.2,0.1c0.3-0.8,0.5-1.7,0.5-2.5c0-0.9-0.2-1.7-0.5-2.5c-0.1,0-0.1,0.1-0.2,0.1l-0.1,0.1c-0.1,0.1-0.2,0.1-0.3,0.2
		c0,0-0.1,0.1-0.1,0.1c-0.1,0.1-0.2,0.2-0.3,0.3l0,0.1c-0.1,0.1-0.2,0.3-0.2,0.4l0,0.1c-0.1,0.2-0.1,0.3-0.1,0.4c0,0.1,0,0.1,0,0.2
		c0,0.2-0.1,0.4-0.1,0.5c0,0.2,0,0.3,0.1,0.5l0,0.1c0,0.2,0.1,0.3,0.1,0.4l0.1,0.1C36.7,33,36.8,33.2,36.9,33.3"/>
	<polygon class="st0" points="34.9,32.4 34.9,32.4 34.9,32.4 	"/>
</g>
</svg>
