<?xml version="1.0" encoding="utf-8"?>
<!-- Generator: Adobe Illustrator 24.1.2, SVG Export Plug-In . SVG Version: 6.00 Build 0)  -->
<svg version="1.1" id="Layer_1" xmlns="http://www.w3.org/2000/svg" xmlns:xlink="http://www.w3.org/1999/xlink" x="0px" y="0px"
	 viewBox="0 0 64 64" style="enable-background:new 0 0 64 64;" xml:space="preserve">
<g>
	<polygon class="st0" points="17.2,24.6 13,24.6 13,28.4 15.1,28.4 15.1,28.4 15.1,28.4 17.2,28.4 	"/>
	<path class="st0" d="M31.4,30.4H24c-0.6,0-1-0.4-1-1v-1.9h-3.8v1.9c0,0.6-0.4,1-1,1h-2.1v7.6h7.4l-1.1-1c-0.4-0.4-0.4-1,0-1.4
		c0.4-0.4,1-0.4,1.4,0l1.8,1.6c0.9-2.1,3.1-3.6,5.9-3.9V30.4z"/>
	<polygon class="st0" points="32.4,28.4 32.4,28.4 39.8,28.4 39.8,24.6 25,24.6 25,28.4 32.4,28.4 	"/>
	<rect x="30.1" y="11.7" transform="matrix(0.7072 -0.707 0.707 0.7072 -0.4009 27.0027)" class="st0" width="4.6" height="4.6"/>
	<path class="st0" d="M32,0C14.3,0,0,14.3,0,32s14.3,32,32,32c17.7,0,32-14.3,32-32S49.7,0,32,0z M48,38.9c0,0.6-0.4,1-1,1h-5.9
		l1.4,1.5c0.4,0.4,0.3,1-0.1,1.4c-0.2,0.2-0.4,0.3-0.7,0.3c-0.3,0-0.5-0.1-0.7-0.3l-1.8-1.9c-0.9,2-3.1,3.5-5.8,3.8v3.1h3.9
		c0.6,0,1,0.4,1,1v5.9c0,0.6-0.4,1-1,1h-9.7c-0.6,0-1-0.4-1-1v-5.9c0-0.6,0.4-1,1-1h3.9v-3.1c-2.7-0.3-4.9-1.8-5.8-3.8l-1.8,1.9
		c-0.2,0.2-0.5,0.3-0.7,0.3c-0.2,0-0.5-0.1-0.7-0.3c-0.4-0.4-0.4-1-0.1-1.4l1.4-1.5h-8.6c-0.6,0-1-0.4-1-1v-8.6H12c-0.6,0-1-0.4-1-1
		v-5.7c0-0.6,0.4-1,1-1h6.2c0.6,0,1,0.4,1,1v1.9H23v-1.9c0-0.6,0.4-1,1-1h7.4v-3.6L27,14.7c-0.4-0.4-0.4-1,0-1.4l4.7-4.7
		c0.4-0.4,1-0.4,1.4,0l4.4,4.4H47c0.6,0,1,0.4,1,1V38.9z"/>
	<path class="st0" d="M33.4,19.1v3.6h7.4c0.6,0,1,0.4,1,1v5.7c0,0.6-0.4,1-1,1h-7.4v2.8c2.8,0.3,5,1.9,5.9,3.9l1.8-1.7
		c0.4-0.4,1-0.4,1.4,0c0.4,0.4,0.4,1,0,1.4l-1.1,1H46V15h-8.5L33.4,19.1z"/>
	<rect x="28.5" y="49.7" class="st0" width="7.7" height="3.9"/>
	<path class="st0" d="M32.4,35.1C32.4,35.1,32.4,35.1,32.4,35.1C32.4,35.1,32.4,35.1,32.4,35.1c-2.9,0-5.2,1.7-5.2,3.8
		c0,2.1,2.3,3.8,5.2,3.8s5.2-1.7,5.2-3.8C37.6,36.8,35.3,35.1,32.4,35.1z"/>
</g>
</svg>
